# xmcd CD database file
#
# Track frame offsets:
#	150
#	17410
#	39017
#	73192
#	111557
#
# Disc length: 1726 seconds
#
# Revision: 0
# Processed by: cddbd v1.5PL3 Copyright (c) Steve Scherf et al.
# Submitted via: CDex 1.51
#
DISCID=3906bc05
DTITLE=森下純菜 - Smile Happy Smile
DYEAR=1998
DGENRE=Pop
TTITLE0=Smile Happy Smile
TTITLE1=マーマレードラブ〜Sweet Marmalade Mix〜
TTITLE2=Splash〜don't touch, don't step mix〜
TTITLE3=Rainbow Sprinkle〜Lesson 2〜
TTITLE4=キスの予感〜British underground Mix〜
EXTD=YEAR: 1998
EXTT0=
EXTT1=
EXTT2=
EXTT3=
EXTT4=
PLAYORDER=
